<svg width="79" height="31" viewBox="0 0 79 31" fill="none" xmlns="http://www.w3.org/2000/svg">
<g filter="url(#filter0_d_5_218)">
<path d="M4.61754 19V4.45455H6.81214V17.1108H13.4031V19H4.61754ZM15.7362 19V8.09091H17.8597V19H15.7362ZM16.8086 6.40767C16.4393 6.40767 16.122 6.28456 15.8569 6.03835C15.5965 5.7874 15.4663 5.48911 15.4663 5.14347C15.4663 4.79309 15.5965 4.49479 15.8569 4.24858C16.122 3.99763 16.4393 3.87216 16.8086 3.87216C17.1779 3.87216 17.4928 3.99763 17.7532 4.24858C18.0183 4.49479 18.1509 4.79309 18.1509 5.14347C18.1509 5.48911 18.0183 5.7874 17.7532 6.03835C17.4928 6.28456 17.1779 6.40767 16.8086 6.40767ZM25.9084 8.09091V9.79545H19.7436V8.09091H25.9084ZM21.4339 19V6.8267C21.4339 6.14489 21.5831 5.57907 21.8814 5.12926C22.1797 4.67472 22.575 4.33617 23.0675 4.11364C23.5599 3.88636 24.0949 3.77273 24.6726 3.77273C25.0987 3.77273 25.4633 3.80824 25.7663 3.87926C26.0694 3.94555 26.2943 4.0071 26.4411 4.06392L25.9439 5.78267C25.8445 5.75426 25.7166 5.72112 25.5604 5.68324C25.4041 5.64062 25.2147 5.61932 24.9922 5.61932C24.4761 5.61932 24.1068 5.74716 23.8842 6.00284C23.6664 6.25852 23.5575 6.62784 23.5575 7.1108V19H21.4339ZM32.3714 19.2202C31.2966 19.2202 30.371 18.9905 29.5945 18.5312C28.8227 18.0672 28.2261 17.4162 27.8047 16.5781C27.388 15.7353 27.1797 14.7481 27.1797 13.6165C27.1797 12.4991 27.388 11.5142 27.8047 10.6619C28.2261 9.80966 28.8132 9.14441 29.5661 8.66619C30.3236 8.18797 31.209 7.94886 32.2223 7.94886C32.8378 7.94886 33.4344 8.05066 34.0121 8.25426C34.5897 8.45786 35.1082 8.77746 35.5675 9.21307C36.0268 9.64867 36.389 10.2145 36.6541 10.9105C36.9193 11.6018 37.0518 12.4422 37.0518 13.4318V14.1847H28.38V12.5938H34.9709C34.9709 12.035 34.8572 11.5402 34.63 11.1094C34.4027 10.6738 34.0831 10.3305 33.6712 10.0795C33.264 9.8286 32.7857 9.70312 32.2365 9.70312C31.6399 9.70312 31.1191 9.84991 30.674 10.1435C30.2337 10.4323 29.8928 10.8111 29.6513 11.2798C29.4145 11.7438 29.2962 12.2481 29.2962 12.7926V14.0355C29.2962 14.7647 29.424 15.3849 29.6797 15.8963C29.9401 16.4077 30.3023 16.7983 30.7663 17.0682C31.2304 17.3333 31.7725 17.4659 32.3928 17.4659C32.7952 17.4659 33.1622 17.4091 33.4936 17.2955C33.825 17.1771 34.1115 17.0019 34.353 16.7699C34.5945 16.5379 34.7791 16.2514 34.907 15.9105L36.9169 16.2727C36.7559 16.8646 36.4671 17.383 36.0504 17.8281C35.6385 18.2685 35.12 18.6117 34.495 18.858C33.8748 19.0994 33.1669 19.2202 32.3714 19.2202Z" fill="white"/>
<path d="M56.5858 21.8951L56.5777 21.8916L56.552 21.8776C56.4018 21.795 56.2529 21.7102 56.1052 21.6232C54.3293 20.568 52.6697 19.3284 51.1538 17.9249C48.4693 15.4201 45.625 11.7031 45.625 7.12508C45.625 3.70908 48.4997 1.00008 51.9693 1.00008C52.9339 0.995358 53.8871 1.20815 54.758 1.62262C55.629 2.0371 56.3953 2.6426 57 3.39408C57.6048 2.64244 58.3713 2.03685 59.2425 1.62237C60.1137 1.20789 61.0671 0.995183 62.0318 1.00008C65.5003 1.00008 68.375 3.70908 68.375 7.12508C68.375 11.7042 65.5307 15.4212 62.8462 17.9237C61.3304 19.3272 59.6707 20.5669 57.8948 21.6221C57.7471 21.7094 57.5982 21.7946 57.448 21.8776L57.4223 21.8916L57.4142 21.8962L57.4107 21.8974C57.2842 21.9644 57.1432 21.9995 57 21.9995C56.8568 21.9995 56.7158 21.9644 56.5893 21.8974L56.5858 21.8951Z" fill="white"/>
<path d="M66.8933 19.9668L70.0833 13.7335H67.8833V9.70012L64.5833 15.9335H66.8933V19.9668ZM67.3333 22.1668C66.3189 22.1668 65.3656 21.9743 64.4733 21.5893C63.5811 21.2043 62.805 20.6818 62.145 20.0218C61.485 19.3618 60.9625 18.5857 60.5775 17.6935C60.1925 16.8012 60 15.8479 60 14.8335C60 13.819 60.1925 12.8657 60.5775 11.9735C60.9625 11.0812 61.485 10.3051 62.145 9.64512C62.805 8.98512 63.5811 8.46262 64.4733 8.07762C65.3656 7.69262 66.3189 7.50012 67.3333 7.50012C68.3478 7.50012 69.3011 7.69262 70.1933 8.07762C71.0856 8.46262 71.8617 8.98512 72.5217 9.64512C73.1817 10.3051 73.7042 11.0812 74.0892 11.9735C74.4742 12.8657 74.6667 13.819 74.6667 14.8335C74.6667 15.8479 74.4742 16.8012 74.0892 17.6935C73.7042 18.5857 73.1817 19.3618 72.5217 20.0218C71.8617 20.6818 71.0856 21.2043 70.1933 21.5893C69.3011 21.9743 68.3478 22.1668 67.3333 22.1668Z" fill="#894189"/>
<path d="M67.2667 19.5001L70.1667 13.8334H68.1667V10.1667L65.1667 15.8334H67.2667V19.5001ZM67.6667 21.5001C66.7444 21.5001 65.8778 21.3251 65.0667 20.9751C64.2556 20.6251 63.55 20.1501 62.95 19.5501C62.35 18.9501 61.875 18.2445 61.525 17.4334C61.175 16.6223 61 15.7556 61 14.8334C61 13.9112 61.175 13.0445 61.525 12.2334C61.875 11.4223 62.35 10.7167 62.95 10.1167C63.55 9.51675 64.2556 9.04175 65.0667 8.69175C65.8778 8.34175 66.7444 8.16675 67.6667 8.16675C68.5889 8.16675 69.4556 8.34175 70.2667 8.69175C71.0778 9.04175 71.7833 9.51675 72.3833 10.1167C72.9833 10.7167 73.4583 11.4223 73.8083 12.2334C74.1583 13.0445 74.3333 13.9112 74.3333 14.8334C74.3333 15.7556 74.1583 16.6223 73.8083 17.4334C73.4583 18.2445 72.9833 18.9501 72.3833 19.5501C71.7833 20.1501 71.0778 20.6251 70.2667 20.9751C69.4556 21.3251 68.5889 21.5001 67.6667 21.5001Z" fill="white"/>
</g>
<defs>
<filter id="filter0_d_5_218" x="0.617432" y="1" width="78.0493" height="29.1668" filterUnits="userSpaceOnUse" color-interpolation-filters="sRGB">
<feFlood flood-opacity="0" result="BackgroundImageFix"/>
<feColorMatrix in="SourceAlpha" type="matrix" values="0 0 0 0 0 0 0 0 0 0 0 0 0 0 0 0 0 0 127 0" result="hardAlpha"/>
<feOffset dy="4"/>
<feGaussianBlur stdDeviation="2"/>
<feComposite in2="hardAlpha" operator="out"/>
<feColorMatrix type="matrix" values="0 0 0 0 0 0 0 0 0 0 0 0 0 0 0 0 0 0 0.25 0"/>
<feBlend mode="normal" in2="BackgroundImageFix" result="effect1_dropShadow_5_218"/>
<feBlend mode="normal" in="SourceGraphic" in2="effect1_dropShadow_5_218" result="shape"/>
</filter>
</defs>
</svg>
